HIERARCHY
ROOT mixamorig:Hips
{
	OFFSET 0.000000 201.639420 0.000000
	CHANNELS 6 Xposition Yposition Zposition Xrotation Yrotation Zrotation
	JOINT mixamorig:Spine
	{
		OFFSET 0.006200 19.524994 -2.481800
		CHANNELS 3 Xrotation Yrotation Zrotation
		JOINT mixamorig:Spine1
		{
			OFFSET -0.000900 22.835007 -2.825400
			CHANNELS 3 Xrotation Yrotation Zrotation
			JOINT mixamorig:Spine2
			{
				OFFSET -0.020600 26.552490 -3.193300
				CHANNELS 3 Xrotation Yrotation Zrotation
				JOINT mixamorig:Neck
				{
					OFFSET -0.060000 30.701813 1.352200
					CHANNELS 3 Xrotation Yrotation Zrotation
					JOINT mixamorig:Head
					{
						OFFSET -0.087200 22.547607 3.670900
						CHANNELS 3 Xrotation Yrotation Zrotation
						JOINT mixamorig:HeadTop_End
						{
							OFFSET -0.830600 40.355194 7.893500
							CHANNELS 3 Xrotation Yrotation Zrotation
							End Site
							{
								OFFSET 0.000000 30.592346 0.000000
							}
						}
						JOINT mixamorig:RightEye
						{
							OFFSET -6.302100 18.118591 16.197100
							CHANNELS 3 Xrotation Yrotation Zrotation
							End Site
							{
								OFFSET 0.000000 30.592346 0.000000
							}
						}
						JOINT mixamorig:LeftEye
						{
							OFFSET 6.741500 18.382690 16.401899
							CHANNELS 3 Xrotation Yrotation Zrotation
							End Site
							{
								OFFSET 0.000000 30.592346 0.000000
							}
						}
					}
				}
				JOINT mixamorig:LeftShoulder
				{
					OFFSET 11.924900 18.230499 1.425400
					CHANNELS 3 Xrotation Yrotation Zrotation
					JOINT mixamorig:LeftArm
					{
						OFFSET 25.435989 -0.697632 -5.229300
						CHANNELS 3 Xrotation Yrotation Zrotation
						JOINT mixamorig:LeftForeArm
						{
							OFFSET 54.684776 0.000000 0.000000
							CHANNELS 3 Xrotation Yrotation Zrotation
							JOINT mixamorig:LeftHand
							{
								OFFSET 55.098175 0.000000 0.000000
								CHANNELS 3 Xrotation Yrotation Zrotation
								JOINT mixamorig:LeftHandMiddle1
								{
									OFFSET 23.369751 0.000000 0.000000
									CHANNELS 3 Xrotation Yrotation Zrotation
									JOINT mixamorig:LeftHandMiddle2
									{
										OFFSET 6.378677 0.000000 0.000000
										CHANNELS 3 Xrotation Yrotation Zrotation
										JOINT mixamorig:LeftHandMiddle3
										{
											OFFSET 6.148331 0.000000 0.000000
											CHANNELS 3 Xrotation Yrotation Zrotation
											JOINT mixamorig:LeftHandMiddle4
											{
												OFFSET 6.582504 0.000000 0.000000
												CHANNELS 3 Xrotation Yrotation Zrotation
												End Site
												{
													OFFSET -1.168900 6.395691 1.028606
												}
											}
										}
									}
								}
								JOINT mixamorig:LeftHandThumb1
								{
									OFFSET 7.235672 -3.848206 5.434273
									CHANNELS 3 Xrotation Yrotation Zrotation
									JOINT mixamorig:LeftHandThumb2
									{
										OFFSET 6.568451 -3.792297 3.792300
										CHANNELS 3 Xrotation Yrotation Zrotation
										JOINT mixamorig:LeftHandThumb3
										{
											OFFSET 6.063080 -3.500519 3.500518
											CHANNELS 3 Xrotation Yrotation Zrotation
											JOINT mixamorig:LeftHandThumb4
											{
												OFFSET 4.793182 -2.767334 2.767349
												CHANNELS 3 Xrotation Yrotation Zrotation
												End Site
												{
													OFFSET 0.101639 6.054260 1.275483
												}
											}
										}
									}
								}
								JOINT mixamorig:LeftHandIndex1
								{
									OFFSET 23.101074 -0.309540 4.992809
									CHANNELS 3 Xrotation Yrotation Zrotation
									JOINT mixamorig:LeftHandIndex2
									{
										OFFSET 6.226883 0.000000 0.000000
										CHANNELS 3 Xrotation Yrotation Zrotation
										JOINT mixamorig:LeftHandIndex3
										{
											OFFSET 6.094330 0.000000 0.000000
											CHANNELS 3 Xrotation Yrotation Zrotation
											JOINT mixamorig:LeftHandIndex4
											{
												OFFSET 5.482605 0.000000 0.000000
												CHANNELS 3 Xrotation Yrotation Zrotation
												End Site
												{
													OFFSET -1.427902 5.233032 0.797164
												}
											}
										}
									}
								}
								JOINT mixamorig:LeftHandRing1
								{
									OFFSET 22.299240 0.021149 -3.964172
									CHANNELS 3 Xrotation Yrotation Zrotation
									JOINT mixamorig:LeftHandRing2
									{
										OFFSET 6.321869 0.000000 0.000000
										CHANNELS 3 Xrotation Yrotation Zrotation
										JOINT mixamorig:LeftHandRing3
										{
											OFFSET 5.899796 0.000000 0.000000
											CHANNELS 3 Xrotation Yrotation Zrotation
											JOINT mixamorig:LeftHandRing4
											{
												OFFSET 6.517899 0.000000 0.000000
												CHANNELS 3 Xrotation Yrotation Zrotation
												End Site
												{
													OFFSET -1.637299 6.232208 0.980890
												}
											}
										}
									}
								}
								JOINT mixamorig:LeftHandPinky1
								{
									OFFSET 20.463791 -0.302338 -8.562233
									CHANNELS 3 Xrotation Yrotation Zrotation
									JOINT mixamorig:LeftHandPinky2
									{
										OFFSET 6.908646 0.000000 0.000000
										CHANNELS 3 Xrotation Yrotation Zrotation
										JOINT mixamorig:LeftHandPinky3
										{
											OFFSET 4.622849 0.000000 0.000000
											CHANNELS 3 Xrotation Yrotation Zrotation
											JOINT mixamorig:LeftHandPinky4
											{
												OFFSET 5.216080 0.000000 0.000000
												CHANNELS 3 Xrotation Yrotation Zrotation
												End Site
												{
													OFFSET -0.606308 5.116241 0.814926
												}
											}
										}
									}
								}
							}
						}
					}
				}
				JOINT mixamorig:RightShoulder
				{
					OFFSET -12.001300 18.284088 1.348900
					CHANNELS 3 Xrotation Yrotation Zrotation
					JOINT mixamorig:RightArm
					{
						OFFSET -25.308500 -0.751312 -5.164599
						CHANNELS 3 Xrotation Yrotation Zrotation
						JOINT mixamorig:RightForeArm
						{
							OFFSET -54.684429 0.000000 0.000000
							CHANNELS 3 Xrotation Yrotation Zrotation
							JOINT mixamorig:RightHand
							{
								OFFSET -55.150291 0.000000 0.000000
								CHANNELS 3 Xrotation Yrotation Zrotation
								JOINT mixamorig:RightHandMiddle1
								{
									OFFSET -23.317566 0.000000 0.000000
									CHANNELS 3 Xrotation Yrotation Zrotation
									JOINT mixamorig:RightHandMiddle2
									{
										OFFSET -6.378403 0.000000 0.000000
										CHANNELS 3 Xrotation Yrotation Zrotation
										JOINT mixamorig:RightHandMiddle3
										{
											OFFSET -6.148193 0.000000 0.000000
											CHANNELS 3 Xrotation Yrotation Zrotation
											JOINT mixamorig:RightHandMiddle4
											{
												OFFSET -6.583389 0.000000 0.000000
												CHANNELS 3 Xrotation Yrotation Zrotation
												End Site
												{
													OFFSET 1.171692 6.395905 1.029786
												}
											}
										}
									}
								}
								JOINT mixamorig:RightHandThumb1
								{
									OFFSET -7.190521 -3.860474 5.435846
									CHANNELS 3 Xrotation Yrotation Zrotation
									JOINT mixamorig:RightHandThumb2
									{
										OFFSET -6.567429 -3.791718 3.791708
										CHANNELS 3 Xrotation Yrotation Zrotation
										JOINT mixamorig:RightHandThumb3
										{
											OFFSET -6.062469 -3.500153 3.500166
											CHANNELS 3 Xrotation Yrotation Zrotation
											JOINT mixamorig:RightHandThumb4
											{
												OFFSET -4.792618 -2.767029 2.767022
												CHANNELS 3 Xrotation Yrotation Zrotation
												End Site
												{
													OFFSET -0.100327 6.053253 1.276754
												}
											}
										}
									}
								}
								JOINT mixamorig:RightHandIndex1
								{
									OFFSET -23.048981 -0.310791 4.992554
									CHANNELS 3 Xrotation Yrotation Zrotation
									JOINT mixamorig:RightHandIndex2
									{
										OFFSET -6.227539 0.000000 0.000000
										CHANNELS 3 Xrotation Yrotation Zrotation
										JOINT mixamorig:RightHandIndex3
										{
											OFFSET -6.095047 0.000000 0.000000
											CHANNELS 3 Xrotation Yrotation Zrotation
											JOINT mixamorig:RightHandIndex4
											{
												OFFSET -5.484772 0.000000 0.000000
												CHANNELS 3 Xrotation Yrotation Zrotation
												End Site
												{
													OFFSET 1.420593 5.237305 0.797056
												}
											}
										}
									}
								}
								JOINT mixamorig:RightHandRing1
								{
									OFFSET -22.246323 0.020569 -3.963762
									CHANNELS 3 Xrotation Yrotation Zrotation
									JOINT mixamorig:RightHandRing2
									{
										OFFSET -6.322128 0.000000 0.000000
										CHANNELS 3 Xrotation Yrotation Zrotation
										JOINT mixamorig:RightHandRing3
										{
											OFFSET -5.900024 0.000000 0.000000
											CHANNELS 3 Xrotation Yrotation Zrotation
											JOINT mixamorig:RightHandRing4
											{
												OFFSET -6.518356 0.000000 0.000000
												CHANNELS 3 Xrotation Yrotation Zrotation
												End Site
												{
													OFFSET 1.636398 6.232697 0.982186
												}
											}
										}
									}
								}
								JOINT mixamorig:RightHandPinky1
								{
									OFFSET -20.411011 -0.303314 -8.561701
									CHANNELS 3 Xrotation Yrotation Zrotation
									JOINT mixamorig:RightHandPinky2
									{
										OFFSET -6.907349 0.000000 0.000000
										CHANNELS 3 Xrotation Yrotation Zrotation
										JOINT mixamorig:RightHandPinky3
										{
											OFFSET -4.623840 0.000000 0.000000
											CHANNELS 3 Xrotation Yrotation Zrotation
											JOINT mixamorig:RightHandPinky4
											{
												OFFSET -5.218353 0.000000 0.000000
												CHANNELS 3 Xrotation Yrotation Zrotation
												End Site
												{
													OFFSET 0.602097 5.118835 0.816273
												}
											}
										}
									}
								}
							}
						}
					}
				}
			}
		}
	}
	JOINT mixamorig:LeftUpLeg
	{
		OFFSET 18.168400 -13.561905 -0.039000
		CHANNELS 3 Xrotation Yrotation Zrotation
		JOINT mixamorig:LeftLeg
		{
			OFFSET 0.577358 -80.825211 -3.695000
			CHANNELS 3 Xrotation Yrotation Zrotation
			JOINT mixamorig:LeftFoot
			{
				OFFSET -0.577356 -83.370262 -6.520700
				CHANNELS 3 Xrotation Yrotation Zrotation
				JOINT mixamorig:LeftToeBase
				{
					OFFSET 0.750401 -20.798306 25.135401
					CHANNELS 3 Xrotation Yrotation Zrotation
					JOINT mixamorig:LeftToe_End
					{
						OFFSET -0.000500 0.001200 19.917799
						CHANNELS 3 Xrotation Yrotation Zrotation
						End Site
						{
							OFFSET 0.000000 19.917805 0.000000
						}
					}
				}
			}
		}
	}
	JOINT mixamorig:RightUpLeg
	{
		OFFSET -18.162500 -13.585098 -0.041000
		CHANNELS 3 Xrotation Yrotation Zrotation
		JOINT mixamorig:RightLeg
		{
			OFFSET -0.595024 -80.945297 -3.631900
			CHANNELS 3 Xrotation Yrotation Zrotation
			JOINT mixamorig:RightFoot
			{
				OFFSET 0.595024 -83.218193 -6.561200
				CHANNELS 3 Xrotation Yrotation Zrotation
				JOINT mixamorig:RightToeBase
				{
					OFFSET -0.753601 -20.807106 25.115000
					CHANNELS 3 Xrotation Yrotation Zrotation
					JOINT mixamorig:RightToe_End
					{
						OFFSET 0.000299 0.001700 19.918200
						CHANNELS 3 Xrotation Yrotation Zrotation
						End Site
						{
							OFFSET 0.000000 19.918203 0.000000
						}
					}
				}
			}
		}
	}
}
MOTION
Frames: 4
Frame Time: 0.033333
0.644323 115.408142 -6.840942 -22.799588 0.669538 -2.246346 6.031858 2.661136 0.715755 12.069037 5.235688 0.878183 12.069034 5.235689 0.878181 3.933389 -3.479316 -2.072866 -5.882779 -18.538802 5.031024 0.000000 -0.000000 -0.000000 0.000000 -0.000000 -0.000000 0.000000 -0.000000 -0.000000 1.170107 -2.212391 -19.893896 3.689795 -34.077972 -37.712818 -0.210443 -31.555167 0.009851 12.538679 -7.668096 32.358288 -12.373940 15.012976 -61.237591 -1.436754 -2.870030 -46.000433 -0.000010 -0.000013 -0.000011 0.000001 -0.000000 0.000000 -4.572083 -13.590562 14.995885 -11.458819 29.458985 -26.351662 0.000012 0.000001 0.000015 -0.000002 0.000000 0.000001 -3.567113 3.842328 -60.590649 -10.164936 -4.550876 -53.684450 -0.000003 0.000002 -0.000001 -0.000002 0.000001 0.000001 -11.901680 28.970408 -62.563085 -1.688358 -4.215949 -49.240743 0.000000 -0.000001 -0.000001 -0.000000 -0.000003 -0.000001 -15.252140 30.084832 -69.930516 -0.435376 -5.276150 -20.890769 0.000002 -0.000002 0.000007 0.000000 -0.000002 -0.000003 0.087486 15.225134 22.199001 -33.589979 23.430402 54.523734 -14.598015 26.665173 6.627588 -3.141140 14.236460 2.760062 -2.320010 10.552228 44.468971 -2.591625 2.915520 74.285240 0.000005 0.000003 -0.000001 0.000001 -0.000001 -0.000000 23.380817 13.538063 5.592170 2.321147 -6.714517 -2.170932 0.000005 0.000001 0.000005 -0.000008 0.000001 -0.000002 2.187528 5.608956 37.424150 1.433798 -2.439444 69.793038 -0.000007 0.000006 -0.000004 -0.000000 0.000000 -0.000002 -3.428668 13.092794 55.668289 -2.589570 5.513053 54.530294 -0.000004 -0.000002 0.000006 -0.000000 0.000000 -0.000002 -3.360212 14.852902 54.810595 -1.148009 7.534075 27.882108 -0.000003 0.000000 0.000001 0.000000 0.000000 0.000001 -75.467505 -1.461125 7.707057 106.291861 -1.358234 -3.015504 1.903131 -1.129394 1.577589 -18.596407 -0.170998 0.614247 -0.000001 0.000000 0.000000 -71.192107 -0.587064 -14.825494 100.352739 1.597324 2.988288 -5.898513 3.574224 -1.269129 -1.545285 -0.182560 0.437400 0.000000 -0.000001 0.000000 
0.644613 115.407486 -6.841888 -22.799011 0.686226 -2.252243 6.031798 2.668652 0.713418 12.069088 5.250248 0.872591 12.069090 5.250250 0.872591 3.992368 -3.481466 -2.069285 -5.759521 -18.581472 5.063043 -0.000000 -0.000001 -0.000000 -0.000000 -0.000001 -0.000000 -0.000000 -0.000001 -0.000000 1.168697 -2.211915 -19.904104 3.689687 -34.098715 -37.681928 -0.174418 -31.593498 0.028751 12.511319 -7.639765 32.355190 -12.373937 15.012976 -61.237591 -1.436751 -2.870024 -46.000433 -0.000015 -0.000008 -0.000008 0.000005 0.000000 0.000000 -4.414729 -13.014838 15.103836 -11.458822 29.458982 -26.351662 0.000000 0.000001 0.000016 0.000002 0.000002 -0.000001 -3.567117 3.842330 -60.590656 -10.164938 -4.550869 -53.684450 -0.000010 -0.000002 -0.000003 0.000001 0.000001 0.000002 -11.901681 28.970404 -62.563085 -1.688363 -4.215950 -49.240750 0.000002 0.000002 0.000003 -0.000003 0.000001 0.000003 -15.252139 30.084825 -69.930523 -0.435374 -5.276147 -20.890774 0.000004 0.000004 0.000010 0.000003 0.000001 0.000003 0.076822 15.275675 22.197550 -33.587114 23.503837 54.545792 -14.598583 26.687170 6.627828 -2.817212 14.215719 2.802395 -2.320011 10.552229 44.468968 -2.591626 2.915520 74.285247 0.000004 0.000004 -0.000001 0.000001 0.000000 0.000001 23.380820 13.538066 5.592172 2.321136 -6.714516 -2.170931 -0.000002 0.000000 0.000003 -0.000004 0.000003 -0.000001 2.187529 5.608957 37.424147 1.433798 -2.439444 69.793038 -0.000009 0.000004 -0.000004 0.000001 0.000001 -0.000006 -3.428670 13.092795 55.668282 -2.589570 5.513051 54.530291 -0.000003 -0.000003 0.000001 -0.000000 0.000001 0.000003 -3.360212 14.852902 54.810591 -1.148009 7.534074 27.882109 -0.000003 0.000002 0.000003 -0.000001 0.000001 0.000000 -75.480912 -1.472198 7.698253 106.291049 -1.364028 -3.016091 1.926972 -1.127235 1.547681 -18.596402 -0.170997 0.614247 -0.000000 -0.000000 0.000000 -71.191151 -0.589708 -14.844451 100.349331 1.602508 2.988762 -5.894656 3.571321 -1.247061 -1.545299 -0.182564 0.437397 0.000000 0.000000 -0.000000 
0.655435 115.406769 -6.842026 -22.798191 0.709499 -2.258224 6.031712 2.677555 0.710435 12.069141 5.267598 0.865797 12.069141 5.267599 0.865797 4.045317 -3.491750 -2.065456 -5.620457 -18.638990 5.112061 -0.000001 -0.000000 0.000000 -0.000001 -0.000000 0.000000 -0.000001 -0.000000 0.000000 1.166977 -2.211278 -19.917248 3.702031 -34.130052 -37.641770 -0.138836 -31.643249 0.047440 12.481699 -7.603848 32.347274 -12.373934 15.012983 -61.237591 -1.436749 -2.870031 -46.000433 -0.000007 -0.000012 -0.000013 -0.000000 -0.000000 -0.000000 -4.216985 -12.716135 15.529957 -11.458816 29.458982 -26.351662 0.000007 0.000003 0.000013 0.000004 0.000002 -0.000001 -3.567111 3.842337 -60.590656 -10.164932 -4.550871 -53.684450 -0.000004 0.000002 -0.000005 0.000002 -0.000001 -0.000003 -11.901675 28.970408 -62.563085 -1.688359 -4.215950 -49.240753 -0.000002 0.000003 0.000002 0.000000 -0.000000 -0.000001 -15.252135 30.084828 -69.930516 -0.435370 -5.276146 -20.890776 0.000003 0.000000 0.000009 0.000002 0.000001 0.000002 0.063359 15.339990 22.195699 -33.583641 23.567884 54.565032 -14.598865 26.697307 6.627969 -2.394654 14.236618 2.828193 -2.320010 10.552229 44.468971 -2.591626 2.915520 74.285247 0.000005 0.000005 -0.000006 0.000001 -0.000001 0.000002 23.380822 13.538062 5.592169 2.321135 -6.714514 -2.170928 0.000004 0.000003 0.000009 -0.000002 0.000001 0.000001 2.187528 5.608956 37.424147 1.433797 -2.439443 69.793038 -0.000008 0.000006 -0.000008 0.000001 0.000000 0.000000 -3.428672 13.092794 55.668282 -2.589570 5.513050 54.530294 -0.000004 -0.000003 0.000002 -0.000000 0.000001 0.000002 -3.360213 14.852899 54.810595 -1.148008 7.534073 27.882108 -0.000005 0.000002 0.000001 0.000000 0.000001 0.000000 -75.497715 -1.488287 7.680837 106.291349 -1.372001 -3.016892 1.959218 -1.124279 1.509464 -18.596418 -0.170998 0.614249 0.000000 -0.000000 0.000000 -71.189853 -0.593545 -14.869394 100.345786 1.608734 2.989342 -5.890938 3.567860 -1.220687 -1.545283 -0.182563 0.437396 0.000000 -0.000001 0.000000 
0.668417 115.398666 -6.842522 -22.797244 0.736250 -2.268538 6.036102 2.686376 0.707207 12.078173 5.284762 0.858234 12.078176 5.284761 0.858235 4.098026 -3.502640 -2.068800 -5.487069 -18.704852 5.165304 -0.000000 0.000000 -0.000000 -0.000000 0.000000 -0.000000 -0.000000 0.000000 -0.000000 1.165306 -2.210652 -19.929879 3.724281 -34.155416 -37.592104 -0.111942 -31.734343 0.061725 12.470805 -7.547319 32.335157 -12.373942 15.012974 -61.237591 -1.436753 -2.870023 -46.000436 -0.000008 -0.000008 -0.000009 -0.000001 0.000001 0.000001 -4.018263 -12.965931 16.305460 -11.458815 29.458988 -26.351659 0.000007 -0.000002 0.000010 -0.000002 -0.000002 0.000000 -3.567118 3.842331 -60.590656 -10.164933 -4.550868 -53.684450 -0.000000 0.000002 -0.000005 -0.000003 0.000002 -0.000000 -11.901681 28.970401 -62.563085 -1.688362 -4.215952 -49.240753 0.000001 0.000002 0.000000 0.000000 0.000000 -0.000000 -15.252142 30.084825 -69.930523 -0.435365 -5.276148 -20.890772 0.000003 0.000004 0.000014 -0.000002 -0.000001 -0.000002 0.050536 15.413640 22.186239 -33.610552 23.624687 54.616344 -14.597935 26.663117 6.618404 -1.879517 14.294166 2.825855 -2.320010 10.552229 44.468971 -2.591627 2.915521 74.285247 0.000006 0.000003 0.000002 0.000002 -0.000001 0.000006 23.380810 13.538068 5.592176 2.321145 -6.714517 -2.170934 -0.000001 0.000004 0.000006 -0.000002 -0.000001 0.000000 2.187526 5.608956 37.424150 1.433797 -2.439445 69.793038 -0.000008 0.000005 -0.000005 0.000002 0.000001 -0.000004 -3.428670 13.092794 55.668285 -2.589570 5.513052 54.530291 -0.000004 -0.000004 -0.000003 -0.000000 0.000001 -0.000002 -3.360214 14.852902 54.810595 -1.148009 7.534076 27.882106 -0.000004 0.000002 0.000001 -0.000001 -0.000000 -0.000001 -75.510658 -1.498303 7.655037 106.298972 -1.373855 -3.017080 1.962781 -1.123727 1.507916 -18.586833 -0.170890 0.613806 -0.000000 0.000000 -0.000000 -71.190816 -0.600793 -14.900374 100.344433 1.612937 2.989738 -5.886744 3.565468 -1.202552 -1.545280 -0.182563 0.437401 0.000000 -0.000001 -0.000000 
